<svg xmlns="http://www.w3.org/2000/svg" xmlns:xlink="http://www.w3.org/1999/xlink" width="457.443" height="534.561" viewBox="0 0 457.443 534.561"><defs><linearGradient id="a" x1="-1.175" y1="0.5" x2="0.675" y2="0.5" gradientUnits="objectBoundingBox"><stop offset="0" stop-color="#085bad"/><stop offset="0.03" stop-color="#085db0"/><stop offset="0.45" stop-color="#0a6fd4"/><stop offset="0.78" stop-color="#0c7bea"/><stop offset="1" stop-color="#0c7ff2"/></linearGradient><linearGradient id="b" y1="0.5" x2="1" y2="0.5" gradientUnits="objectBoundingBox"><stop offset="0" stop-color="#122651"/><stop offset="1" stop-color="#031439"/></linearGradient><linearGradient id="c" x1="0" y1="0.501" x2="1.001" y2="0.501" xlink:href="#a"/><linearGradient id="d" x1="0" y1="0.5" x2="1" y2="0.5" xlink:href="#a"/><linearGradient id="e" y1="0.501" x2="1" y2="0.501" gradientUnits="objectBoundingBox"><stop offset="0" stop-color="#fe4f61"/><stop offset="0.03" stop-color="#085db0"/><stop offset="0.45" stop-color="#0a6fd4"/><stop offset="0.78" stop-color="#0c7bea"/><stop offset="1" stop-color="#0c7ff2"/></linearGradient></defs><g transform="translate(-387.726 -231.89)"><g transform="translate(387.726 231.89)"><g transform="translate(124.918)" opacity="0.21"><path d="M802.59,231.89c-9.578,0-17.867,4.835-23.124,14.272-8.96,16.107-4.792,71.4-1.494,85.136s2.388,22.409,2.388,22.409-11.467-34.85-42.024-34.85a47.4,47.4,0,0,0-14.136,2.285c-41.228,12.848-34.953,59.75-34.953,59.75a41.052,41.052,0,0,0-27.352-10.341,47.06,47.06,0,0,0-18.056,3.79c-27.482,11.37-29.918,53.372-20.178,76.777,16.3,39.133,79.63,25.094,53.058,55.863s-26.886,43.313-26.886,43.313H818.318s35.847-26.291-1.2-42.419-34.948-60.048.9-63.345c34.022-3.119,39.252-20.768,27.184-20.768a14.492,14.492,0,0,0-2.09.157c-6.432.915-14.829,2.588-22.2,4.169,21.819-5.88,56.745-18.852,57.768-41.813,1.494-33.459-16.134-50.486-32.262-52.278a28.391,28.391,0,0,0-3.037-.162c-13.443,0-27.855,9.328-34.807,18.229a243.2,243.2,0,0,0,20.779-41.374c10.752-27.482,12.842-59.447-5.078-71.4-7.444-4.965-14.889-7.4-21.689-7.4" transform="translate(-618.454 -231.89)" fill="#52bdf1"/></g><path d="M668.49,580.21s54.07,46.664,80.015,46.653" transform="translate(-516.482 -391.627)" fill="none" stroke="#fff" stroke-miterlimit="10" stroke-width="2"/><path d="M926.17,497.531c1.283-53.968,21.927-203.624,28.077-260.721" transform="translate(-634.652 -234.146)" fill="none" stroke="#fff" stroke-miterlimit="10" stroke-width="2"/><path d="M1009.485,598.537s66.052-5.382,75.884-48.1-27.487-51.385-33.762-51.385-16.129-1.792-26.286,2.989c25.69-18.522,55.862-35.251,47.5-58.256s-30.471-23-38.24-16.129-16.729,18.522-16.729,18.522,16.729-31.369,22.409-50.784,7.466-46.6-16.432-51.975-29.279,10.157-30.768,25.089.893,57.064,4.18,72.6c-7.168-12.55-13.443-25.7-25.69-29.875s-31.066,2.084-32.566,22.42-3.584,40.33,8.365,61.244-31.943,47.2-32.263,74.682,14.028,28.96,14.028,28.96Z" transform="translate(-629.567 -282.539)" fill="#a5dcf2" opacity="0.37"/><path d="M1084.3,559.538s48.023-27.612,62.008-40.968" transform="translate(-707.169 -363.359)" fill="none" stroke="#fff" stroke-miterlimit="10" stroke-width="2"/><path d="M1066.41,604.837c1.516-64.011,18.148-204.143,24.32-258.847" transform="translate(-698.965 -284.215)" fill="none" stroke="#fff" stroke-miterlimit="10" stroke-width="2"/><line x2="185.876" y2="53.681" transform="translate(161.547 274.093)" fill="none" stroke="#031439" stroke-linejoin="round" stroke-width="3"/><path d="M676.672,1013.361s-6.291-184.117-31.445-207.847c0,0-18.868-51.547-47.167,0,0,0-28.3,105.575-28.3,207.847" transform="translate(-471.205 -484.443)" fill="none" stroke="#00005a" stroke-linecap="round" stroke-linejoin="round" stroke-width="2.96"/><path d="M806.7,812.149c.227,4.412-2.166,8.868-4.147,13.053-7.428,15.7-19.778,29.328-36.421,35.321-13.627,4.911-28.516,4.266-42.408.85-68.109-16.735-102.1,39.8-102.1,39.8l-42.733,66.593-15.652,32.041-19.491-3.465.828-4.662s13.443,2.09,15.511-9.556c0,0,24.9-103.274,48.413-135.433,6.329-8.662,12.88-16.421,21.456-23.069A107.316,107.316,0,0,1,659.5,807.46a116.306,116.306,0,0,1,20.064-5.219c7.038-1.175,12.956-1.115,19.393-4.456,3.389-1.76,6.73-3.552,10.227-5.111a121.01,121.01,0,0,1,29.891-9.2c13.432-2.166,27.444-.958,39.972,4.515,9,3.936,20.969,10.6,26.15,19.247A10.286,10.286,0,0,1,806.7,812.149Z" transform="translate(-459.273 -484.375)" fill="#031439"/><path d="M634.45,924.368s11.435-28.987,21.765-38.278" transform="translate(-500.872 -531.901)" fill="none" stroke="#fff" stroke-linecap="round" stroke-miterlimit="10" stroke-width="2"/><path d="M696.312,749.524s-32.068,1.781-54.4-6.654c0,0-28.429-18.083-36.54,12.864,0,0-10.9,37.639,48.943,95.548L711.9,914.653l11.326,13.828c2.166,2.615,4.017,5.2,4.38,8.711.4,3.849-1.456,7.336-3.611,10.368-2.063,2.907-6.15,5.955-7.374,9.323-.384,1.056-.471,3.248.541,4.055,2.5,1.949,6.41-2.6,8.121-4.055,3.822-3.249,7.731-6.5,11.846-9.383,2.74-1.917,7.314-4.044,7.461-7.926.179-4.645-2.869-9.166-5.582-12.658l-50.189-88.347-20.032-32.658s-4.873-14.277,11.093-15.159c0,0,37.227.79,43.188-5.192L747,773.27l-27.536-39.81Z" transform="translate(-487.18 -461.906)" fill="#031439"/><path d="M742.586,887.038l-4.548-7.4-14.185-23.107a13.14,13.14,0,0,1-1.949-8.305c.449-3.985,2.924-8.527,11.721-9.025,0,0,4.84.1,11.3-.049" transform="translate(-540.947 -510.374)" fill="none" stroke="#fff" stroke-linecap="round" stroke-miterlimit="10" stroke-width="2"/><path d="M668.49,921.86c4.369,4.986,9.274,10.157,14.781,15.5.217.211.428.433.633.655l6.14,6.762L708,964.534" transform="translate(-516.482 -548.305)" fill="none" stroke="#fff" stroke-linecap="round" stroke-linejoin="round" stroke-width="2"/><path d="M703.51,396.295c10.027-19.918,7.347-24.076,5.723-27.536a8.557,8.557,0,0,0-11.218-4.055c-4.775,2.241-5.252,8.663-5.252,8.663s-5.252-3.752-10.027-1.511a8.557,8.557,0,0,0-4.055,11.218C680.3,386.533,681.788,391.265,703.51,396.295Z" transform="translate(-520.815 -292.431)" fill="#fff"/><path d="M390.17,591.52h87.454a5.955,5.955,0,0,1,5.262,3.162l26.469,49.707H414.274L388.026,595.12a2.431,2.431,0,0,1,2.144-3.6Z" transform="translate(-387.726 -396.813)" fill="#01c7d4" opacity="0.32"/><line x1="53.226" y1="0.801" transform="translate(13.05 206.542)" fill="none" stroke="#384a7c" stroke-miterlimit="10" stroke-width="1"/><line x1="19.068" y1="0.287" transform="translate(16.84 215.204)" fill="none" stroke="#384a7c" stroke-miterlimit="10" stroke-width="1"/><line x1="19.068" y1="0.287" transform="translate(41.745 215.746)" fill="none" stroke="#384a7c" stroke-miterlimit="10" stroke-width="1"/><line x1="29.631" y1="0.444" transform="translate(45.307 224.766)" fill="none" stroke="#384a7c" stroke-miterlimit="10" stroke-width="1"/><line x1="12.588" y1="0.271" transform="translate(30.169 224.63)" fill="none" stroke="#384a7c" stroke-miterlimit="10" stroke-width="1"/><line x1="53.226" y1="0.801" transform="translate(27.127 235.236)" fill="none" stroke="#384a7c" stroke-miterlimit="10" stroke-width="1"/><path d="M790.05,515.654c-4.71-3.676-9.334-7.477-13.958-11.267a4.651,4.651,0,0,1,.91-7.812c8.045-3.849,16.275-8.121,24.6-10.525l1.083-12.247S754.4,455.4,726.835,480.815c-16.968,15.652,2.041,52.073,17.271,62.219,26.529,17.661,23.578,12.122,23.578,12.122Z" transform="translate(-540.183 -339.875)" fill="#0c7ff2"/><path d="M862.033,595.374c8.82,27.661,11.792,56.815,6.5,80.08a27.449,27.449,0,0,1-2.074,5.956L679.34,628.351c1.586-5.073,5.782-15.338,7.721-20.514,16.6-44.4,65.889-92.131,95.775-100.041a25.533,25.533,0,0,1,17.774,2.166A84.505,84.505,0,0,1,820.063,524a5.1,5.1,0,0,0-1.126-5.831c-9.2-8.787-18.451-18.343-28.792-25.446l4.6-15.815s73.632-.975,97.995,43.437C904.23,541.314,883.678,577.215,862.033,595.374Z" transform="translate(-521.458 -344.253)" fill="url(#a)"/><path d="M932.86,549.2s5.728,3.871,3.492,7.943" transform="translate(-637.72 -377.406)" fill="none" stroke="#031439" stroke-linecap="round" stroke-linejoin="round" stroke-width="3"/><path d="M1020.781,689.12l-4,3.573,1.3,4.256" transform="translate(-676.205 -441.572)" fill="none" stroke="#031439" stroke-linecap="round" stroke-linejoin="round" stroke-width="3"/><path d="M756.89,601.18a28.037,28.037,0,0,0,4.873,3.79,52.687,52.687,0,0,0-4.434,5.013" transform="translate(-557.022 -401.243)" fill="none" stroke="#031439" stroke-linecap="round" stroke-linejoin="round" stroke-width="3"/><path d="M951.922,1021.049S945.631,836.932,920.477,813.2c0,0-18.868-51.553-47.167,0,0,0-28.3,105.575-28.3,207.847" transform="translate(-597.433 -487.968)" fill="none" stroke="#00005a" stroke-linecap="round" stroke-linejoin="round" stroke-width="2.96"/><rect width="430.014" height="10.942" transform="translate(432.609 325.321) rotate(180)" fill="url(#b)"/><rect width="111.346" height="10.942" transform="translate(432.609 325.321) rotate(180)" fill="#00005a"/><path d="M850.136,499.8l.985.666a12.81,12.81,0,0,0,17.731-3.438L880.3,480.084a12.81,12.81,0,0,0-3.438-17.731l-.991-.666c-5.82-3.931-11.337-2.426-15.268,3.395l-13.892,19.263C842.475,491.226,844.3,495.871,850.136,499.8Z" transform="translate(-597.15 -336.27)" fill="#fff"/><path d="M898.1,463.653c.845-1.689,1.76-3.346,2.707-4.981,2.415-4.2,7.038-15.057-4.331-22.387-14.38-9.253-20.969,8.581-20.969,8.581s-1.034,2.707.357,4.6a3.492,3.492,0,0,0,4.331.931,9.994,9.994,0,0,1,7.7-.4c.439.152.883.3,1.326.433,2.545.742,9.594,3.324,2.615,19.426a2.166,2.166,0,0,0-.211,1.695C892.031,472.635,893.428,472.976,898.1,463.653Z" transform="translate(-611.249 -324.403)" fill="#0d2145"/><path d="M816.461,492.985c-1.743,2.745-10.287,14.423-30.135,16.242a16.334,16.334,0,0,0-6.318,1.911c-4,2.166-8.381,6.762-4.2,15.982a16,16,0,0,0,1.57,2.707,35,35,0,0,0,12.5,10.79c8.186,4.125,19.675,6.253,28.11,1.695,6.394-3.46,11.467-9.1,15.647-14.948a84.967,84.967,0,0,0,7.038-11.527s8.121-17.552,8.522-22.165l-2.485.98a12.454,12.454,0,0,0-1.516,2.409c-1.835,3.579-5.154,9.626-8.8,9.632a2.214,2.214,0,0,1-2.138-2.052c-.211-2.214-1.007-6.356-3.985-8.24,0,0-1.787-1.781-5.815-.357a3.79,3.79,0,0,1-3.53-.46,2.864,2.864,0,0,1-1.115-3.173.953.953,0,0,0-.5-1.083,1.6,1.6,0,0,0-1.543.281A4.18,4.18,0,0,0,816.461,492.985Z" transform="translate(-564.921 -350.822)" fill="#0d2145"/><path d="M984.156,648.9a7.31,7.31,0,0,0,.65-3.151c.693-12.225,1.386-24.558-.541-36.653-2.442-15.473-9.713-29.989-22.831-39.046a77.088,77.088,0,0,0-16.036-8.121c-8.662-3.389-17.6-6.085-25.722-10.585s-15.511-11.126-18.6-19.875c-1.743-4.938-2.29-10.742-6.264-14.147-3.173-2.707-7.758-3.108-11.911-2.48s-8.061,2.133-12.2,2.675c1.44,1.792,1.381,4.4.6,6.567a47.84,47.84,0,0,1-3.248,6.075c-3.248,6.123-3.487,13.492-1.911,20.227s4.84,12.956,8.419,18.873c7.775,12.869,18.229,25.495,32.777,29.3,5.75,1.505,11.862,1.532,17.455,3.541,8.793,3.156,15.2,10.774,20.232,18.641a121.719,121.719,0,0,1,11.846,23.952,13.586,13.586,0,0,0,1.711,3.6,9.979,9.979,0,0,0,3.833,2.842,22.739,22.739,0,0,0,18.565.244,6.3,6.3,0,0,0,3.151-2.447Z" transform="translate(-606.689 -361.53)" fill="#fff" opacity="0.32"/><path d="M995.165,655.176s6.167-25.555,9.377-50.779-12.079-39.333-20.828-41.336-16.091-1.316-22.739,2.355-22.939,10.086-39.214,2.29-9.388-26.589-32.56-39.436c6.5,15.457,19.025,32.831,16.621,55.852s12.7,36.929,30.747,45.327,28.592,14.51,33.026,25.11S998.63,659.87,995.165,655.176Z" transform="translate(-617.698 -367.807)" fill="#fff" opacity="0.32"/><path d="M1026.9,766.862s.162.823.493,2.166c.108.417.227.893.363,1.408s.3,1.083.471,1.673c1.153,3.92,3.064,9.258,5.8,13.172h0a19.345,19.345,0,0,0,1.364,1.738h0a13.515,13.515,0,0,0,1.8,1.7h19.9a44.448,44.448,0,0,0,8.24-13.535,31.6,31.6,0,0,0,.953-3.1c.135-.541.26-1.11.363-1.673.141-.753.244-1.511.314-2.285.033-.406.06-.818.076-1.229v-.06Z" transform="translate(-680.846 -477.214)" fill="url(#c)"/><path d="M1068.727,807.31h-41.6a.714.714,0,0,0-.72.72v.119a.807.807,0,0,0,.8.807h41.613a.774.774,0,0,0,.774-.774h0A.872.872,0,0,0,1068.727,807.31Z" transform="translate(-680.621 -495.773)" fill="url(#d)"/><path d="M1028.48,773.48q.211.78.471,1.673h38.088c.135-.542.26-1.11.363-1.673Z" transform="translate(-681.571 -480.259)" fill="#fcfafa"/><path d="M1024.641,776s-3.3-2.707-6.15-.78c0,0,1.624-2.6,5.457-1.624Z" transform="translate(-676.989 -480.211)" fill="#8b9ef2"/><path d="M1028.2,787.148a27.985,27.985,0,0,0-6.5-4.661s-6.172-2.891-7.109-5.257a4.516,4.516,0,0,1,1.749-5.533c1.516-.85,3.671-.769,5.333-.72l.417,1.76s-5.257-.98-5.858,2.772c0,0-.428,2.631,3.828,4.228l.39.162a31.414,31.414,0,0,1,4.927,2.864Z" transform="translate(-675.056 -479.098)" fill="#d9dee4"/><path d="M1028.88,810.373s1.083-.146,4.6.78a13.574,13.574,0,0,0,4.667.991h23.632a2.378,2.378,0,0,0,.438-.038,18.16,18.16,0,0,0,3.871-1.267,1.328,1.328,0,0,1,.249-.076,31.73,31.73,0,0,1,3.9-.433Z" transform="translate(-681.754 -497.158)" fill="url(#e)"/><path d="M1027.56,766.875s.038.807.244,2.166c.1.417.227.893.363,1.408s.3,1.083.471,1.673c1.153,3.92,3.064,9.258,5.8,13.172h0q.639.877,1.364,1.738h0a13.538,13.538,0,0,0,1.8,1.7h19.9a44.45,44.45,0,0,0,8.24-13.535,38.429,38.429,0,0,0,1.624-7.038c.043-.422.07-.839.076-1.229v-.06h-10.287s-2,1.8-.877,8.4a6.39,6.39,0,0,1,.033,1.873c-.341,2.5-1.868,8.121-8.8,7.623,0,0-8.662.98-19.724-17.867Z" transform="translate(-681.149 -477.227)" fill="#fe4f61" opacity="0.09"/><path d="M795.056,530.122s6.21-2.512,7.038-.309a1.321,1.321,0,0,1-.677,1.586c-2.431,1.278-10.568,5.912-6.058,8.663,0,0,8.381,6.54,14.331,8.69a2.377,2.377,0,0,1,1.532,1.684c.292,1.37-.585,3.487-6.919,5.382-10.438,3.129.141,6.367.141,6.367s-16.529-3.514-21.413-13.914S786,532.444,795.056,530.122Z" transform="translate(-568.323 -368.1)" fill="#112670" opacity="0.41"/><path d="M898.757,487.253s0-3.14-2.647-1.391" transform="translate(-620.867 -348.116)" fill="none" stroke="#112670" stroke-linecap="round" stroke-linejoin="round" stroke-width="0.91"/><path d="M877.458,474.743s0-3.14-2.647-1.391" transform="translate(-611.099 -342.379)" fill="none" stroke="#112670" stroke-linecap="round" stroke-linejoin="round" stroke-width="0.91"/><path d="M865.351,516.158s-7.406.244-10.135-6.648c0,0-1.624,7.406,2.279,9.632C857.5,519.142,861.35,521.86,865.351,516.158Z" transform="translate(-601.96 -359.204)" fill="#dadde5"/><path d="M0,0H53.2V7.184H2.929A2.929,2.929,0,0,1,0,4.256V0Z" transform="translate(200.161 314.526) rotate(180)" fill="#bac2cc"/><path d="M446.28,702h87.454A5.955,5.955,0,0,1,539,705.162l26.469,49.707H470.384L444.136,705.6a2.431,2.431,0,0,1,2.144-3.6Z" transform="translate(-413.458 -447.479)" fill="#6d89f5"/><path d="M493.43,806.745h94.779V799.56H493.43Z" transform="translate(-436.201 -492.219)" fill="#fafbfc"/><path d="M499.147,799.56H493.43v7.185" transform="translate(-436.201 -492.219)" fill="#fafbfc" stroke="#031439" stroke-linecap="round" stroke-miterlimit="10" stroke-width="2"/><line x1="48.84" transform="translate(103.167 307.341)" stroke-width="2.26" stroke="#031439" stroke-linecap="round" stroke-linejoin="round" fill="none"/><path d="M446.28,702h87.454A5.955,5.955,0,0,1,539,705.162l26.469,49.707H470.384L444.136,705.6a2.431,2.431,0,0,1,2.144-3.6Z" transform="translate(-413.458 -447.479)" fill="#01c7d4"/><circle cx="6.914" cy="6.914" r="6.914" transform="translate(80.493 275.842)" fill="none" stroke="#031439" stroke-linecap="round" stroke-linejoin="round" stroke-width="2.26"/><line x1="2.88" y2="0.081" transform="translate(264.68 128.411)" stroke-width="2" stroke="#112670" stroke-linecap="round" stroke-linejoin="round" fill="none"/><line x1="1.559" y1="2.426" transform="translate(278.416 134.21)" stroke-width="2" stroke="#112670" stroke-linecap="round" stroke-linejoin="round" fill="none"/><path d="M552.2,1157.38l7.531,6.557-9.951-1.716" transform="translate(-462.043 -656.312)" fill="none" stroke="#122651" stroke-linecap="round" stroke-linejoin="round" stroke-width="2"/><path d="M816.567,1126.82l9.523,3-9.81,2.4" transform="translate(-584.258 -642.298)" fill="none" stroke="#031439" stroke-linecap="round" stroke-linejoin="round" stroke-width="2"/><path d="M999.415,837.3s-.168,26.063-35.435,46.22" transform="translate(-651.992 -509.526)" fill="none" stroke="#fff" stroke-linecap="round" stroke-linejoin="round" stroke-width="2"/></g></g></svg>