<?xml version="1.0" encoding="UTF-8" standalone="no"?>
<!DOCTYPE svg PUBLIC "-//W3C//DTD SVG 1.1//EN" "http://www.w3.org/Graphics/SVG/1.1/DTD/svg11.dtd">
<svg width="100%" height="100%" viewBox="0 0 275 275" version="1.1" xmlns="http://www.w3.org/2000/svg" xmlns:xlink="http://www.w3.org/1999/xlink" xml:space="preserve" xmlns:serif="http://www.serif.com/" style="fill-rule:evenodd;clip-rule:evenodd;stroke-linejoin:round;stroke-miterlimit:2;">
    <g id="Artboard1" transform="matrix(0.950317,0,0,0.987999,-308.842,-10.6412)">
        <rect x="324.988" y="10.77" width="289.377" height="278.34" style="fill:none;"/>
        <g id="logo-coralspace" transform="matrix(1.05228,0,0,1.01215,-62.5901,0.649013)">
            <g>
                <path d="M529.467,123.787L434.149,22.5L535.436,117.817C537.134,119.415 537.216,122.088 535.617,123.787C534.019,125.486 531.348,125.567 529.647,123.968C529.589,123.913 529.523,123.846 529.467,123.787" style="fill:rgb(222,79,79);fill-opacity:0.85;fill-rule:nonzero;"/>
                <path d="M515.457,130.931L443.585,53.089L521.428,124.962C523.141,126.544 523.248,129.216 521.665,130.932C520.084,132.646 517.41,132.753 515.695,131.169C515.615,131.094 515.531,131.01 515.457,130.931" style="fill:rgb(222,79,79);fill-opacity:0.85;fill-rule:nonzero;"/>
                <path d="M500.893,131.14L453.13,79.397L504.872,127.16C506.016,128.215 506.086,129.997 505.032,131.139C503.977,132.281 502.194,132.353 501.053,131.299C500.999,131.249 500.942,131.193 500.893,131.14" style="fill:rgb(222,79,79);fill-opacity:0.85;fill-rule:nonzero;"/>
                <path d="M540.913,95.327L491.047,41.48L544.891,91.347C546.033,92.405 546.102,94.187 545.044,95.327C543.986,96.467 542.206,96.536 541.065,95.479C541.014,95.432 540.961,95.377 540.913,95.327" style="fill:rgb(222,79,79);fill-opacity:0.85;fill-rule:nonzero;"/>
                <path d="M527.406,98.049L455.222,19.895L533.375,92.08C535.089,93.662 535.196,96.333 533.612,98.049C532.031,99.763 529.357,99.869 527.643,98.285C527.562,98.211 527.479,98.127 527.406,98.049" style="fill:rgb(222,79,79);fill-opacity:0.85;fill-rule:nonzero;"/>
                <path d="M486.004,126.9L463.281,102.188L487.993,124.911C488.565,125.438 488.603,126.329 488.078,126.9C487.551,127.472 486.66,127.509 486.088,126.984C486.059,126.956 486.03,126.928 486.004,126.9" style="fill:rgb(222,79,79);fill-opacity:0.85;fill-rule:nonzero;"/>
                <path d="M539.13,77.437L516.409,52.724L541.121,75.447C541.693,75.975 541.731,76.865 541.204,77.437C540.677,78.009 539.786,78.046 539.214,77.521C539.186,77.494 539.156,77.464 539.13,77.437" style="fill:rgb(222,79,79);fill-opacity:0.85;fill-rule:nonzero;"/>
            </g>
            <g>
                <path d="M402.354,223.299L402.354,161.344L424.687,161.344L424.687,135.049L402.354,135.049L402.354,133.428C402.354,123.523 407.937,123.523 412.62,123.523L424.687,123.523L424.687,97.228L414.421,97.228C404.875,97.228 392.448,96.507 382.543,106.413C374.078,114.878 373.538,124.963 373.538,135.409L373.538,223.299L402.354,223.299Z" style="fill:rgb(25,130,125);fill-rule:nonzero;"/>
                <rect x="433.151" y="97.228" width="28.816" height="126.072" style="fill:rgb(25,130,125);"/>
                <path d="M505.192,135.049L476.376,135.049L476.376,184.397C476.376,193.402 477.637,209.431 493.126,219.337C499.609,223.479 507.354,225.1 515.098,225.1C522.842,225.1 530.587,223.479 537.071,219.337C552.559,209.431 553.82,193.402 553.82,184.397L553.82,135.049L525.004,135.049L525.004,186.198C525.004,193.042 521.762,198.445 515.098,198.445C508.434,198.445 505.192,193.042 505.192,186.198L505.192,135.049Z" style="fill:rgb(195,48,48);fill-opacity:0.85;fill-rule:nonzero;"/>
                <path d="M564.626,135.049L564.626,161.344L565.527,161.344C571.11,161.344 579.755,161.884 584.618,170.529C585.878,172.871 586.779,175.572 586.779,178.274C586.779,181.516 585.878,184.938 584.257,187.819C579.575,195.744 572.371,197.004 567.148,197.004L564.626,197.004L564.626,223.299L569.489,223.299C584.618,223.299 594.163,220.058 600.647,208.711C606.23,218.437 614.335,223.299 631.444,223.299L636.667,223.299L636.667,197.004L634.146,197.004C628.923,197.004 621.719,195.744 617.036,187.819C615.415,184.938 614.515,181.516 614.515,178.274C614.515,175.572 615.415,172.871 616.676,170.529C621.539,161.884 630.184,161.344 635.767,161.344L636.667,161.344L636.667,135.049L635.406,135.049C623.52,135.049 609.652,135.409 600.647,149.637C591.642,135.409 577.774,135.049 565.887,135.049L564.626,135.049Z" style="fill:rgb(25,130,125);fill-rule:nonzero;"/>
            </g>
        </g>
    </g>
</svg>
